# AST/ASF file generated using VICON BodyLanguage
# -----------------------------------------------
:version 1.10
:name VICON
:units
  mass 1.0
  length 0.45
  angle deg
:documentation
   .ast/.asf automatically generated from VICON data using
   VICON BodyBuilder and BodyLanguage model FoxedUp or BRILLIANT.MOD
:root
   order TX TY TZ RX RY RZ
   axis XYZ
   position 0 0 0  
   orientation 0 0 0 
:bonedata
  begin
     id 1 
     name lhipjoint
     direction 0.630305 -0.712092 0.309259 
     length 2.29033 
     axis 0 0 0  XYZ
  end
  begin
     id 2 
     name lfemur
     direction 0.34202 -0.939693 0  
     length 6.43538  
     axis 0 0 20  XYZ
    dof rx ry rz
    limits (-160.0 20.0)
           (-70.0 70.0)
           (-60.0 70.0)
  end
  begin
     id 3 
     name ltibia
     direction 0.34202 -0.939693 0   
     length 7.43097   
     axis 0 0 20   XYZ
    dof rx
    limits (-10.0 170.0)
  end
  begin
     id 4 
     name lfoot
     direction 0.0334653 -0.0919451 0.995202   
     length 1.78438   
     axis -90 7.62852e-016 20   XYZ
    dof rx rz
    limits (-45.0 90.0)
           (-70.0 20.0)
  end
  begin
     id 5 
     name ltoes
     direction 1.53535e-011 -4.21933e-011 1   
     length 0.90832   
     axis -90 7.62852e-016 20   XYZ
    dof rx
    limits (-90.0 20.0)
  end
  begin
     id 6 
     name rhipjoint
     direction -0.682059 -0.67077 0.291312   
     length 2.43143  
     axis 0 0 0  XYZ 
  end
  begin
     id 7 
     name rfemur
     direction -0.34202 -0.939693 0   
     length 6.63488   
     axis 0 0 -20   XYZ
    dof rx ry rz
    limits (-160.0 20.0)
           (-70.0 70.0)
           (-70.0 60.0)
  end
  begin
     id 8 
     name rtibia
     direction -0.34202 -0.939693 0   
     length 6.86532   
     axis 0 0 -20   XYZ
    dof rx
    limits (-10.0 170.0)
 end
 begin
     id 9 
     name rfoot
     direction -0.105199 -0.289033 0.951521   
     length 1.77126  
     axis -90 -7.62852e-016 -20   XYZ
    dof rx rz
    limits (-45.0 90.0)
           (-20.0 70.0)
  end
  begin
     id 10 
     name rtoes
     direction -1.53551e-011 -4.21978e-011 1   
     length 0.889273   
     axis -90 -7.62852e-016 -20   XYZ
    dof rx
    limits (-90.0 20.0)
  end
  begin
     id 11 
     name lowerback
     direction -0.0514305 0.998089 0.034245   
     length 2.02077   
     axis 0 0 0   XYZ
    dof rx ry rz
    limits (-20.0 45.0)
           (-30.0 30.0)
           (-30.0 30.0)
  end
  begin
     id 12 
     name upperback
     direction 0.0203189 0.999449 -0.0262315   
     length 2.01413   
     axis 0 0 0   XYZ
    dof rx ry rz
    limits (-20.0 45.0)
           (-30.0 30.0)
           (-30.0 30.0)
  end
  begin
     id 13 
     name thorax
     direction 0.0452736 0.998142 -0.0407729   
     length 2.02986   
     axis 0 0 0   XYZ
    dof rx ry rz
    limits (-20.0 45.0)
           (-30.0 30.0)
           (-30.0 30.0)
  end
  begin
     id 14 
     name lowerneck
     direction -0.0180464 0.999645 -0.0195774   
     length 1.59034   
     axis 0 0 0   XYZ
    dof rx ry rz
    limits (-20.0 45.0)
           (-30.0 30.0)
           (-30.0 30.0)
  end
  begin
     id 15 
     name upperneck
     direction 0.0732272 0.979935 -0.18538   
     length 1.57486   
     axis 0 0 0   XYZ
    dof rx ry rz
    limits (-20.0 45.0)
           (-30.0 30.0)
           (-30.0 30.0)
  end
  begin
     id 16
     name head
     direction 0.0252963 0.997909 -0.059472  
     length 1.60334  
     axis 0 0 0   XYZ
    dof rx ry rz
    limits (-20.0 45.0)
           (-30.0 30.0)
           (-30.0 30.0)
  end
  begin
     id 17 
     name lclavicle
     direction 0.943819 0.330449 0.00315172  
     length 3.50322  
     axis 0 0 0   XYZ
    dof ry rz
    limits (-20.0 10.0)
           (0.0 20.0)
  end
  begin
     id 18 
     name lhumerus
     direction 1 -4.48949e-011 2.22502e-028   
     length 4.63208   
     axis 180 -30 -90   XYZ
    dof rx ry rz
    limits (-60.0 90.0)
           (-90.0 90.0)
           (-90.0 90.0)
  end
  begin
     id 19
     name lradius
     direction 1 -4.48967e-011 -4.10197e-027   
     length 3.41924   
     axis 180 -30 -90   XYZ
    dof rx
    limits (-10.0 170.0)
  end
  begin
     id 20
     name lwrist
     direction 1 -4.48987e-011 -1.24264e-027   
     length 1.70962   
     axis 2.50585e-015 90 90   XYZ
    dof ry
    limits (-180.0 0.0)
 end
  begin
     id 21 
     name lhand
     direction 1 -4.48983e-011 -2.48528e-027   
     length 0.62537   
     axis 1.58582e-015 90 90   XYZ
    dof rx rz
    limits (-90.0 90.0)
           (-45.0 45.0)
  end
  begin
     id 22 
     name lfingers
     direction 1 -4.48896e-011 -4.97056e-027   
     length 0.50419   
     axis 3.17164e-015 90 90   XYZ
    dof rx
    limits (0.0 90.0)
  end
  begin
     id 23
     name lthumb
     direction 0.707107 -6.34803e-011 0.707107   
     length 0.723919   
     axis -90 45 2.85299e-015   XYZ
    dof rx rz
    limits (-45.0 45.0)
           (-45.0 45.0)
  end
  begin
     id 24 
     name rclavicle
     direction -0.964499 0.260664 -0.0423695   
     length 3.91997  
     axis 0 0 0   XYZ 
    dof ry rz
    limits (-10.0 20.0)
           (-20.0 0.0)
  end
  begin
     id 25 
     name rhumerus
     direction -1 -4.48957e-011 -1.98656e-027  
     length 4.4064   
     axis 180 30 90   XYZ
    dof rx ry rz
    limits (-90.0 60.0)
           (-90.0 90.0)
           (-90.0 90.0)
  end
  begin
     id 26 
     name rradius
     direction -1 -4.48968e-011 1.96972e-027   
     length 3.44675   
     axis 180 30 90   XYZ
    dof rx
    limits (-10.0 170.0)
  end
  begin
     id 27 
     name rwrist
     direction -1 -4.48974e-011 -1.24264e-027   
     length 1.72338   
     axis 2.50585e-015 -90 -90   XYZ
    dof ry
    limits (-180.0 0.0)
  end
  begin
     id 28
     name rhand
     direction -1 -4.48901e-011 -2.48528e-027   
     length 0.513674   
     axis 1.58582e-015 -90 -90   XYZ
    dof rx rz
    limits (-90.0 90.0)
           (-45.0 45.0)
  end
  begin
     id 29
     name rfingers
     direction -1 -4.48946e-011 -4.97056e-027   
     length 0.414137   
     axis 3.17164e-015 -90 -90   XYZ
    dof rx
    limits (0.0 90.0)
  end
  begin
     id 30
     name rthumb
     direction -0.707107 -6.34859e-011 0.707107   
     length 0.59462   
     axis -90 -45 -2.85299e-015   XYZ
    dof rx rz
    limits (-45.0 45.0)
           (-45.0 45.0)
  end
:hierarchy
  begin
    root lhipjoint rhipjoint lowerback
    lhipjoint lfemur
    lfemur ltibia
    ltibia lfoot
    lfoot ltoes
    rhipjoint rfemur
    rfemur rtibia
    rtibia rfoot
    rfoot rtoes
    lowerback upperback
    upperback thorax
    thorax lowerneck lclavicle rclavicle
    lowerneck upperneck
    upperneck head
    lclavicle lhumerus
    lhumerus lradius
    lradius lwrist
    lwrist lhand lthumb
    lhand lfingers
    rclavicle rhumerus
    rhumerus rradius
    rradius rwrist
    rwrist rhand rthumb
    rhand rfingers
  end

#!OML:ASF E:\inclinewalkrobotboard\Project 1\Capture day 1\Session 1\subject1.ASF
:FULLY-SPECIFIED
:DEGREES
96
root 11.471 15.7299 0.348137 -21.1922 -34.803 0.526645
lowerback 23.1571 1.20791 -0.120775
upperback 15.0982 1.00526 3.08537
thorax 3.68068 0.109834 3.19077
lowerneck -8.9145 0.580812 -3.25932
upperneck 3.12739 1.19039 -0.924938
head 2.52811 0.512717 0.326385
rclavicle 9.66093e-014 -1.19271e-014
rhumerus -19.9937 -4.275 -83.079
rradius 55.2624
rwrist -8.31423
rhand -20.9173 -18.601
rfingers 7.12502
rthumb 5.4542 -48.5108
lclavicle 9.66093e-014 -1.19271e-014
lhumerus -9.21687 -8.75636 90.0056
lradius 40.4964
lwrist -1.17424
lhand -26.311 -37.5248
lfingers 7.12502
lthumb 0.245338 -7.54522
rfemur -68.0744 -8.98094 22.1934
rtibia 122.309
rfoot -22.4018 0.245769
rtoes -24.627
lfemur -71.8418 -0.555224 -27.261
ltibia 125.998
lfoot -17.0639 -0.168661
ltoes -62.2508
97
root 11.4698 15.7363 0.348973 -20.9247 -34.7576 0.287193
lowerback 23.0863 1.16083 0.253601
upperback 15.0913 1.01203 3.19883
thorax 3.71144 0.13622 3.10043
lowerneck -9.07523 0.626663 -3.2987
upperneck 3.29452 1.26378 -0.881165
head 2.61334 0.54706 0.352959
rclavicle 9.54166e-015 -5.40694e-014
rhumerus -19.5282 -4.40478 -82.8686
rradius 56.757
rwrist -8.03303
rhand -20.5071 -17.3764
rfingers 7.12502
rthumb 5.85026 -47.2757
lclavicle 9.54166e-015 -5.40694e-014
lhumerus -8.63098 -8.96192 89.846
lradius 41.3209
lwrist -1.92652
lhand -27.4369 -38.0241
lfingers 7.12502
lthumb -0.842094 -8.04599
rfemur -68.1076 -9.02671 22.39
rtibia 122.222
rfoot -22.485 0.219185
rtoes -23.714
lfemur -71.9733 -0.52324 -27.0742
ltibia 125.989
lfoot -17.0638 -0.37234
ltoes -62.2764
98
root 11.4586 15.7732 0.398582 -20.4984 -35.5876 0.0968791
lowerback 22.1071 1.31928 1.03496
upperback 15.2838 1.32201 3.21942
thorax 4.40791 0.348436 2.63443
lowerneck -9.32951 0.615594 -3.14008
upperneck 3.41128 1.24614 -0.935633
head 2.70191 0.535839 0.30938
rclavicle -6.91771e-014 3.33958e-014
rhumerus -19.044 -4.60706 -82.7447
rradius 58.4327
rwrist -7.7546
rhand -19.969 -16.5708
rfingers 7.12502
rthumb 6.36977 -46.455
lclavicle -6.91771e-014 3.33958e-014
lhumerus -7.87614 -9.20551 89.6665
lradius 42.2181
lwrist -2.61543
lhand -27.9459 -38.379
lfingers 7.12502
lthumb -1.33367 -8.40338
rfemur -68.0182 -8.03458 22.7212
rtibia 121.989
rfoot -22.6647 0.142858
rtoes -23.6997
lfemur -71.8105 0.670075 -26.7727
ltibia 126.026
lfoot -17.6852 -0.730934
ltoes -62.0252
99
root 11.4577 15.7641 0.386417 -20.4426 -35.3586 0.112784
lowerback 22.3571 1.28226 1.09291
upperback 15.2516 1.29111 3.29446
thorax 4.25105 0.334005 2.68514
lowerneck -9.52402 0.675494 -2.98889
upperneck 3.53057 1.32858 -1.11803
head 2.78002 0.569603 0.230282
rclavicle -6.0033e-014 4.77083e-014
rhumerus -18.6322 -4.57421 -82.6648
rradius 60.3273
rwrist -7.87347
rhand -19.2347 -15.5459
rfingers 7.12502
rthumb 7.07864 -45.4075
lclavicle -6.0033e-014 4.77083e-014
lhumerus -7.12228 -9.2695 89.5086
lradius 43.2563
lwrist -2.85119
lhand -27.7859 -38.3477
lfingers 7.12502
lthumb -1.17914 -8.37124
rfemur -68.2266 -8.2357 22.6979
rtibia 122.06
rfoot -22.6216 0.0741605
rtoes -23.3357
lfemur -71.9894 0.484308 -26.8278
ltibia 126.017
lfoot -17.5811 -0.854523
ltoes -61.7944
100
root 11.4498 15.7423 0.390933 -20.4748 -35.2834 0.244963
lowerback 22.497 1.23569 1.10731
upperback 15.2599 1.23346 3.34368
thorax 4.19507 0.302175 2.73963
lowerneck -9.71557 0.809122 -3.01667
upperneck 3.74818 1.53387 -1.30421
head 2.88976 0.659551 0.188114
rclavicle -4.81059e-014 4.29375e-014
rhumerus -18.1372 -4.29485 -82.6622
rradius 62.2388
rwrist -8.25396
rhand -18.92 -15.3923
rfingers 7.12502
rthumb 7.38239 -45.2435
lclavicle -4.81059e-014 4.29375e-014
lhumerus -6.34859 -9.30064 89.3024
lradius 44.2294
lwrist -3.02853
lhand -27.7404 -38.1771
lfingers 7.12502
lthumb -1.13522 -8.20035
rfemur -68.4967 -8.09291 22.5629
rtibia 122.253
rfoot -22.557 -0.0241748
rtoes -22.3827
lfemur -72.2537 0.467477 -26.9699
ltibia 126.174
lfoot -17.6358 -0.963316
ltoes -61.8045
101
root 11.4516 15.755 0.386455 -20.5475 -35.262 0.382795
lowerback 22.6051 1.22763 1.25847
upperback 15.3304 1.24477 3.335
thorax 4.22761 0.318164 2.64321
lowerneck -10.0567 0.895795 -2.94168
upperneck 4.05373 1.67079 -1.46214
head 3.06053 0.715572 0.135208
rclavicle 4.77083e-015 1.66979e-014
rhumerus -17.6626 -4.09689 -82.7653
rradius 64.2399
rwrist -8.5648
rhand -20.2221 -16.5055
rfingers 7.12502
rthumb 6.12538 -46.397
lclavicle 4.77083e-015 1.66979e-014
lhumerus -5.53654 -9.74295 88.9694
lradius 45.2281
lwrist -3.35281
lhand -27.9258 -38.0348
lfingers 7.12502
lthumb -1.31429 -8.05913
rfemur -68.4297 -8.27488 22.4521
rtibia 122.152
rfoot -22.5495 0.0978219
rtoes -21.1136
lfemur -72.1653 0.655454 -27.0866
ltibia 126.035
lfoot -17.7695 -1.1721
ltoes -61.8818
102
root 11.4518 15.7637 0.382728 -20.5717 -35.254 0.461597
lowerback 22.7335 1.25346 1.42486
upperback 15.3598 1.30681 3.38024
thorax 4.20082 0.359425 2.5862
lowerneck -10.3425 0.943912 -2.84321
upperneck 4.33395 1.74725 -1.56654
head 3.21366 0.744596 0.0916642
rclavicle 4.77083e-015 -1.19271e-014
rhumerus -17.3119 -3.77578 -82.8003
rradius 66.3635
rwrist -8.94225
rhand -24.3743 -18.8484
rfingers 7.12502
rthumb 2.11588 -48.8177
lclavicle 4.77083e-015 -1.19271e-014
lhumerus -4.79003 -10.1818 88.7891
lradius 46.1317
lwrist -4.01556
lhand -28.2671 -37.944
lfingers 7.12502
lthumb -1.64391 -7.97064
rfemur -68.4225 -8.41047 22.4507
rtibia 122.08
rfoot -22.584 -0.0225897
rtoes -20.6762
lfemur -72.0928 0.904177 -27.1508
ltibia 125.921
lfoot -17.8737 -1.43385
ltoes -61.9272
103
root 11.4484 15.7678 0.383679 -20.5986 -35.2555 0.598821
lowerback 22.8545 1.26888 1.4022
upperback 15.3051 1.32814 3.50995
thorax 4.07595 0.362078 2.73316
lowerneck -10.3478 1.03287 -2.88826
upperneck 4.56598 1.88954 -1.72422
head 3.29563 0.803389 0.0573206
rclavicle 3.73715e-014 3.18055e-015
rhumerus -16.9185 -3.14079 -82.7553
rradius 68.3804
rwrist -9.40641
rhand -23.6343 -17.8249
rfingers 7.12502
rthumb 2.8305 -47.7858
lclavicle 3.73715e-014 3.18055e-015
lhumerus -4.30101 -10.2115 88.8824
lradius 46.948
lwrist -5.07074
lhand -28.8631 -37.9559
lfingers 7.12502
lthumb -2.2195 -7.9877
rfemur -68.5656 -8.48735 22.4119
rtibia 122.064
rfoot -22.5005 -0.311558
rtoes -21.7832
lfemur -72.1032 1.11971 -27.2751
ltibia 125.848
lfoot -17.9283 -1.60145
ltoes -61.9359
104
root 11.4512 15.7598 0.345548 -20.3544 -34.5952 0.414329
lowerback 23.4231 1.06971 1.273
upperback 15.0425 1.08376 3.798
thorax 3.50544 0.218308 3.15665
lowerneck -10.4629 1.21534 -2.79328
upperneck 5.12371 2.17185 -2.14016
head 3.51774 0.915396 -0.0761076
rclavicle 4.09496e-014 -5.24792e-014
rhumerus -16.5257 -2.3305 -82.7166
rradius 70.3527
rwrist -9.90642
rhand -24.3492 -18.6451
rfingers 7.12502
rthumb 2.14007 -48.6141
lclavicle 4.09496e-014 -5.24792e-014
lhumerus -3.99444 -10.1836 89.06
lradius 47.8236
lwrist -6.03302
lhand -29.3198 -38.2527
lfingers 7.12502
lthumb -2.66053 -8.28954
rfemur -68.8953 -9.35865 22.5599
rtibia 122.083
rfoot -22.3987 -0.552352
rtoes -22.7113
lfemur -72.5843 0.395913 -27.1974
ltibia 125.747
lfoot -17.479 -1.71762
ltoes -61.963
105
root 11.4549 15.7896 0.343951 -20.3263 -34.768 0.588628
lowerback 23.4799 1.1509 1.3202
upperback 15.0297 1.19727 3.94816
thorax 3.45729 0.271082 3.27002
lowerneck -10.9988 1.39631 -2.47059
upperneck 5.92443 2.4548 -2.63296
head 3.91844 1.01907 -0.272065
rclavicle -1.27222e-014 -4.92986e-014
rhumerus -16.0045 -1.67643 -82.7502
rradius 72.3858
rwrist -10.5147
rhand -23.704 -17.7921
rfingers 7.12502
rthumb 2.76326 -47.754
lclavicle -1.27222e-014 -4.92986e-014
lhumerus -3.42393 -10.5435 89.1655
lradius 48.6494
lwrist -6.63508
lhand -29.7777 -38.591
lfingers 7.12502
lthumb -3.10275 -8.63379
rfemur -68.8829 -9.46005 22.5016
rtibia 121.859
rfoot -22.36 -0.449754
rtoes -22.7227
lfemur -72.4882 0.922187 -27.2995
ltibia 125.479
lfoot -17.5203 -2.05859
ltoes -62.0112
106
root 11.4432 15.7606 0.354306 -20.2652 -34.6897 0.798118
lowerback 23.554 1.28248 1.49458
upperback 15.1327 1.3952 3.98226
thorax 3.53427 0.381681 3.17051
lowerneck -12.0907 1.38576 -1.9234
upperneck 7.15552 2.46739 -3.03133
head 4.12486 0.982549 -0.450151
rclavicle 2.22639e-014 4.6118e-014
rhumerus -15.1533 -1.63304 -83.0213
rradius 74.4111
rwrist -11.0785
rhand -22.6495 -17.5965
rfingers 7.12502
rthumb 3.78157 -47.5427
lclavicle 2.22639e-014 4.6118e-014
lhumerus -2.2749 -11.6607 88.9668
lradius 49.3183
lwrist -6.94381
lhand -30.0559 -38.701
lfingers 7.12502
lthumb -3.37148 -8.74787
rfemur -69.3383 -9.2615 22.2755
rtibia 122.135
rfoot -22.4682 -0.487185
rtoes -21.8115
lfemur -72.913 0.809703 -27.5467
ltibia 125.642
lfoot -17.543 -2.11228
ltoes -62.0341
